<svg width="1920" height="1200" viewBox="0 0 1920 1200" fill="none" xmlns="http://www.w3.org/2000/svg">
<path d="M1920 34.3337C1872.47 18.6162 1701.92 -0.165367 1505.19 50.4492C1308.45 101.064 1190.37 71.5385 1155.92 50.4492C1122.11 30.1556 1036.89 -8.0439 966.459 1.50604C898.102 10.7752 870.388 55.7646 850.982 87.2669L850.98 87.269C850.393 88.2225 849.813 89.1636 849.24 90.091C829.734 121.659 780.344 155.448 688.482 111.862C549.043 45.7022 492.061 51.4641 416.182 59.137L416.182 59.137C405.362 60.2311 394.159 61.3639 382.278 62.3327C314.338 67.8723 243.788 111.333 211.5 148.5C172.687 193.178 82.6753 224.507 0 203.975V904.298V975.634V1176.59C6.43323 1167.33 48.249 1138.87 164.047 1099C279.844 1059.14 403.141 1082.39 430 1099C484.558 1132.74 602 1174.42 708.5 1190.71C853.633 1212.92 903.529 1192.58 966.875 1158.52C978.863 1150.29 990.867 1141.58 1003.04 1132.74C1053.05 1096.43 1105.84 1058.1 1171.66 1043.49C1273.95 1020.78 1335.54 1057.65 1378 1092.98C1420.46 1128.3 1480.91 1139.37 1506 1121.71C1526.07 1107.58 1523.37 1074.19 1519.51 1059.26C1513.83 1032.97 1524.57 999.469 1564.15 975.634C1585.77 960.974 1643.6 932.833 1702 937.553C1760.4 942.273 1796.5 955.253 1832.5 970.807C1874 988.738 1904.91 1006.66 1920 1019.52V975.634V904.298V34.3337Z" fill="white"/>
</svg>
