<svg width="52" height="52" viewBox="0 0 52 52" fill="none" xmlns="http://www.w3.org/2000/svg">
<g filter="url(#filter0_d)">
<circle cx="26" cy="22" r="16" fill="#F1F5F7"/>
</g>
<path d="M33.6413 26.6447L31.1703 24.1734C30.6782 23.6833 29.8631 23.6982 29.3538 24.2076L28.109 25.4522C28.0303 25.4089 27.9489 25.3636 27.8633 25.3156C27.0772 24.88 26.0012 24.283 24.869 23.15C23.7335 22.0145 23.1359 20.9369 22.699 20.1503C22.6529 20.067 22.6087 19.9866 22.5651 19.9103L23.4006 19.076L23.8113 18.6648C24.3214 18.1545 24.3355 17.3397 23.8445 16.8481L21.3735 14.3766C20.8825 13.8857 20.0671 13.9006 19.557 14.4108L18.8606 15.1112L18.8796 15.1301C18.6461 15.4281 18.451 15.7717 18.3058 16.1423C18.1719 16.4951 18.0886 16.8317 18.0505 17.169C17.7242 19.8738 18.9603 22.3459 22.3147 25.7004C26.9516 30.337 30.6884 29.9867 30.8496 29.9696C31.2007 29.9277 31.5372 29.8438 31.8791 29.711C32.2465 29.5675 32.5899 29.3726 32.8877 29.1396L32.9029 29.1531L33.6084 28.4623C34.1174 27.9522 34.1321 27.1371 33.6413 26.6447Z" fill="#374072"/>
<defs>
<filter id="filter0_d" x="0" y="0" width="52" height="52" filterUnits="userSpaceOnUse" color-interpolation-filters="sRGB">
<feFlood flood-opacity="0" result="BackgroundImageFix"/>
<feColorMatrix in="SourceAlpha" type="matrix" values="0 0 0 0 0 0 0 0 0 0 0 0 0 0 0 0 0 0 127 0"/>
<feOffset dy="4"/>
<feGaussianBlur stdDeviation="5"/>
<feColorMatrix type="matrix" values="0 0 0 0 0.0328125 0 0 0 0 0.110526 0 0 0 0 0.525 0 0 0 0.15 0"/>
<feBlend mode="normal" in2="BackgroundImageFix" result="effect1_dropShadow"/>
<feBlend mode="normal" in="SourceGraphic" in2="effect1_dropShadow" result="shape"/>
</filter>
</defs>
</svg>
