<svg width="139" height="180" viewBox="0 0 139 180" fill="none" xmlns="http://www.w3.org/2000/svg">
<path d="M69.4959 180C69.4959 180 0 141.16 0 102.708V30.7343C0.000175272 28.7467 0.629851 26.8105 1.79839 25.2042C2.96693 23.598 4.61405 22.4046 6.50267 21.7959L60.2656 1.46659C66.3278 -0.488862 72.8498 -0.488862 78.912 1.46659L132.503 21.7938C134.391 22.403 136.037 23.5963 137.204 25.2022C138.372 26.8081 139 28.7436 139 30.7302V102.708C138.99 141.16 69.4959 180 69.4959 180Z" fill="#374072"/>
<path opacity="0.2" d="M69.4163 179.953C14.5162 133.969 11.4333 102.762 11.4333 102.762C11.4333 102.762 10.2348 37.4375 11.4333 31.4691C12.6317 25.5006 69.3101 0.0904535 69.4918 0.0065918C66.3597 0.0148496 63.2477 0.507457 60.2656 1.46701L6.50267 21.7984C4.61405 22.4071 2.96693 23.6004 1.79839 25.2067C0.629851 26.8129 0.000175272 28.7492 0 30.7368L0 102.711C0 140.45 66.9479 178.556 69.4163 179.953Z" fill="black"/>
<path d="M83.139 45.9016C78.1374 45.8941 73.2898 47.6345 69.4313 50.8229C66.2718 48.2199 62.4391 46.5699 58.3796 46.0652C54.3202 45.5606 50.2011 46.222 46.5024 47.9724C42.8037 49.7227 39.6777 52.4901 37.4885 55.9519C35.2992 59.4137 34.137 63.4275 34.1372 67.5257C34.1372 87.0061 69.6253 113.695 69.5273 113.5C69.6253 113.5 104.723 87.0061 104.723 67.5257C104.723 64.6859 104.165 61.874 103.08 59.2505C101.996 56.6269 100.406 54.2431 98.4015 52.2351C96.3972 50.2272 94.0177 48.6343 91.399 47.5476C88.7802 46.4609 85.9735 45.9016 83.139 45.9016Z" fill="#E72F50"/>
<path opacity="0.2" d="M69.2934 50.7304C66.1209 48.1783 62.2928 46.5766 58.2508 46.1103C54.2088 45.6439 50.1176 46.3318 46.449 48.0946C42.7804 49.8574 39.684 52.6233 37.517 56.0732C35.3499 59.5232 34.2006 63.5166 34.2014 67.5928C34.2014 86.6151 68.0602 112.526 69.5363 113.535C55.9205 99.587 36.29 76.8748 42.0352 60.215C47.4028 44.6474 66.7617 49.9614 69.2934 50.7304Z" fill="black"/>
</svg>
