<svg width="60" height="60" viewBox="0 0 60 60" fill="none" xmlns="http://www.w3.org/2000/svg">
<circle cx="30" cy="30" r="30" fill="#4F5C9F"/>
<path d="M35.25 16H24.75C19.9183 16 16 19.9183 16 24.75V35.25C16 40.0817 19.9183 44 24.75 44H35.25C40.0817 44 44 40.0817 44 35.25V24.75C44 19.9183 40.0817 16 35.25 16ZM41.375 35.25C41.375 38.6275 38.6275 41.375 35.25 41.375H24.75C21.3725 41.375 18.625 38.6275 18.625 35.25V24.75C18.625 21.3725 21.3725 18.625 24.75 18.625H35.25C38.6275 18.625 41.375 21.3725 41.375 24.75V35.25Z" fill="white"/>
<path d="M30 23C26.1342 23 23 26.1342 23 30C23 33.8658 26.1342 37 30 37C33.8658 37 37 33.8658 37 30C37 26.1342 33.8658 23 30 23ZM30 34.375C27.5885 34.375 25.625 32.4115 25.625 30C25.625 27.5868 27.5885 25.625 30 25.625C32.4115 25.625 34.375 27.5868 34.375 30C34.375 32.4115 32.4115 34.375 30 34.375Z" fill="white"/>
<path d="M37.525 23.408C38.0402 23.408 38.4578 22.9904 38.4578 22.4752C38.4578 21.9601 38.0402 21.5425 37.525 21.5425C37.0099 21.5425 36.5923 21.9601 36.5923 22.4752C36.5923 22.9904 37.0099 23.408 37.525 23.408Z" fill="white"/>
</svg>
