<svg width="179" height="26" viewBox="0 0 179 26" fill="none" xmlns="http://www.w3.org/2000/svg">
<path d="M17.4687 17.419C17.4687 18.6343 16.351 19.7917 15.0569 19.7917C14.2922 19.7917 13.5863 19.4444 13.0569 18.75L6.88046 11.0532C6.46869 10.5324 6.2334 10.0116 6.2334 9.375C6.2334 8.85417 6.46869 8.33333 6.88046 7.87037L12.9981 0.752315C13.4687 0.231481 14.0569 0 14.8216 0C16.0569 0 17.1158 1.04167 17.1158 2.31481C17.1158 2.89352 16.8805 3.41435 16.4687 3.93519L11.704 9.49074L16.9393 16.088C17.2922 16.4931 17.4687 16.956 17.4687 17.419Z" fill="#E72F50"/>
<path d="M5.05882 2.5463V17.3032C5.05882 18.75 3.94118 19.8495 2.52941 19.8495C1.11765 19.8495 0 18.75 0 17.3032V2.5463C0 1.09954 1.05882 0 2.52941 0C4 0 5.05882 1.09954 5.05882 2.5463Z" fill="white"/>
<path d="M35.8823 12.2104C35.8823 16.6664 32.9412 19.8493 28.8235 19.8493C27.2353 19.8493 25.9412 19.3863 25.0588 18.5183V22.5692C25.0588 24.016 23.9412 25.1155 22.5294 25.1155C21.1176 25.1155 20 24.016 20 22.5692V7.05995C20 5.67106 21.0588 4.62939 22.4706 4.62939C23.5882 4.62939 24.4706 5.26597 24.8235 6.24976C25.7059 5.2081 27.0588 4.62939 28.8235 4.62939C32.9412 4.62939 35.8823 7.75439 35.8823 12.2104ZM30.7059 12.2104C30.7059 10.4164 29.5294 9.14328 27.8235 9.14328C26.1176 9.14328 24.9412 10.4164 24.9412 12.2104C24.9412 14.0623 26.1176 15.3354 27.8235 15.3354C29.4706 15.2775 30.7059 14.0044 30.7059 12.2104Z" fill="white"/>
<path d="M43.5883 7.17569V8.10162H45.706C49.2942 8.10162 52.2354 10.1271 52.2354 13.8308C52.2354 17.5345 49.2942 19.5599 45.706 19.5599H41.0589C39.5884 19.5599 38.4707 18.4604 38.4707 17.0137V7.17569C38.4707 5.72893 39.5295 4.62939 41.0001 4.62939C42.4707 4.62939 43.5883 5.72893 43.5883 7.17569ZM43.5883 12.2104V15.2775H45.3531C46.2354 15.2775 47.1178 14.8724 47.1178 13.8308C47.1178 12.7891 46.2354 12.2104 45.3531 12.2104H43.5883ZM54.2354 17.303V7.17569C54.2354 5.72893 55.2942 4.62939 56.7648 4.62939C58.2354 4.62939 59.2942 5.72893 59.2942 7.17569V17.303C59.2942 18.7498 58.2354 19.8493 56.7648 19.8493C55.2942 19.7914 54.2354 18.7498 54.2354 17.303Z" fill="white"/>
<path d="M63.2354 16.9558V7.17569C63.2354 5.72893 64.353 4.62939 65.7648 4.62939C67.1765 4.62939 68.2942 5.72893 68.2942 7.17569V15.3354H72.1177V7.17569C72.1177 5.72893 73.2354 4.62939 74.6471 4.62939C76.0589 4.62939 77.1177 5.72893 77.1177 7.17569V15.3354H80.9412V7.17569C80.9412 5.72893 82.0001 4.62939 83.4706 4.62939C84.9412 4.62939 85.9412 5.72893 85.9412 7.17569V16.9558C85.9412 18.4025 84.8236 19.5021 83.353 19.5021H65.7059C64.353 19.4442 63.2354 18.4025 63.2354 16.9558Z" fill="white"/>
<path d="M102.529 11.0533V17.3033C102.529 18.75 101.47 19.7338 100.117 19.7338C99.0585 19.7338 98.2349 19.213 97.8232 18.3449C96.7644 19.2709 95.3526 19.7917 93.7055 19.7917C90.7055 19.7917 88.5879 17.9977 88.5879 15.3357C88.5879 12.6158 90.7644 10.9954 94.3526 10.9954H97.4114V10.7639C97.4114 9.54863 96.5879 8.91206 95.1173 8.91206C94.2938 8.91206 93.5879 9.14354 92.7644 9.6065C92.1761 10.0116 91.882 10.1273 91.4114 10.1273C90.2349 10.1273 89.2938 9.25928 89.2938 8.10187C89.2938 7.40743 89.6467 6.71298 90.4114 6.13428C91.6467 5.15048 93.5291 4.57178 95.7055 4.57178C100.117 4.62965 102.529 6.94446 102.529 11.0533ZM97.4702 14.1783V14.0625H95.1173C94.2349 14.0625 93.7644 14.4676 93.7644 15.1621C93.7644 15.9144 94.3526 16.3195 95.2938 16.3195C96.5879 16.2616 97.4702 15.4514 97.4702 14.1783Z" fill="white"/>
<path d="M125.765 2.60417V17.3032C125.765 18.75 124.647 19.8495 123.235 19.8495C121.824 19.8495 120.706 18.75 120.706 17.3032V10.5903L118.176 14.5833C117.471 15.6829 116.824 16.1458 115.882 16.1458C114.941 16.1458 114.294 15.6829 113.588 14.5833L111.059 10.5903V17.3032C111.059 18.75 109.941 19.8495 108.529 19.8495C107.118 19.8495 106 18.75 106 17.3032V2.60417C106 1.09954 107.059 0 108.529 0C109.588 0 110.294 0.520833 111.118 1.85185L115.941 9.43287L120.765 1.85185C121.588 0.520833 122.294 0 123.353 0C124.706 0 125.765 1.09954 125.765 2.60417Z" fill="white"/>
<path d="M143.882 7.17569V17.303C143.882 18.7498 142.765 19.8493 141.353 19.8493C139.941 19.8493 138.824 18.7498 138.824 17.303V13.0206L134 18.6919C133.294 19.5021 132.588 19.8493 131.765 19.8493C130.294 19.8493 129.235 18.7498 129.235 17.303V7.17569C129.235 5.72893 130.353 4.62939 131.765 4.62939C133.177 4.62939 134.294 5.72893 134.294 7.17569V11.4581L139.118 5.7868C139.824 4.97662 140.529 4.62939 141.353 4.62939C142.824 4.62939 143.882 5.72893 143.882 7.17569Z" fill="white"/>
<path d="M163.294 12.2104C163.294 16.6664 160.353 19.8493 156.236 19.8493C154.647 19.8493 153.353 19.3863 152.471 18.5183V22.5692C152.471 24.016 151.353 25.1155 149.942 25.1155C148.53 25.1155 147.412 24.016 147.412 22.5692V7.05995C147.412 5.67106 148.471 4.62939 149.883 4.62939C151 4.62939 151.883 5.26597 152.236 6.24976C153.118 5.15023 154.53 4.62939 156.294 4.62939C160.353 4.62939 163.294 7.75439 163.294 12.2104ZM158.118 12.2104C158.118 10.4164 156.942 9.14328 155.236 9.14328C153.53 9.14328 152.353 10.4164 152.353 12.2104C152.353 14.0623 153.53 15.3354 155.236 15.3354C156.942 15.2775 158.118 14.0044 158.118 12.2104Z" fill="white"/>
<path d="M179 11.0533V17.3033C179 18.75 177.941 19.7338 176.588 19.7338C175.529 19.7338 174.706 19.213 174.294 18.3449C173.235 19.2709 171.823 19.7917 170.176 19.7917C167.176 19.7917 165.059 17.9977 165.059 15.3357C165.059 12.6158 167.235 10.9954 170.823 10.9954H173.882V10.7639C173.882 9.54863 173.059 8.91206 171.588 8.91206C170.764 8.91206 170.059 9.14354 169.235 9.6065C168.647 10.0116 168.353 10.1273 167.882 10.1273C166.706 10.1273 165.764 9.25928 165.764 8.10187C165.764 7.40743 166.117 6.71298 166.882 6.13428C168.117 5.15048 170 4.57178 172.176 4.57178C176.588 4.62965 179 6.94446 179 11.0533ZM173.941 14.1783V14.0625H171.588C170.706 14.0625 170.235 14.4676 170.235 15.1621C170.235 15.9144 170.823 16.3195 171.764 16.3195C173.059 16.2616 173.941 15.4514 173.941 14.1783Z" fill="white"/>
</svg>
