<svg width="15" height="11" viewBox="0 0 15 11" fill="none" xmlns="http://www.w3.org/2000/svg">
<path d="M0.602367 5.54527C0.602367 4.96588 1.0628 4.49619 1.63077 4.49619H13.9716C14.5396 4.49619 15 4.96588 15 5.54527C15 6.12467 14.5396 6.59436 13.9716 6.59436H1.63077C1.0628 6.59436 0.602367 6.12467 0.602367 5.54527Z" fill="#374072"/>
<path d="M0.301212 4.75818C0.702828 4.34849 1.35398 4.34849 1.75559 4.75818L6.11873 9.20909C6.52035 9.61879 6.52035 10.283 6.11873 10.6927C5.71712 11.1024 5.06597 11.1024 4.66435 10.6927L0.301212 6.24182C-0.100404 5.83212 -0.100404 5.16788 0.301212 4.75818Z" fill="#374072"/>
<path d="M6.11868 0.307271C6.52029 0.716966 6.52029 1.38121 6.11868 1.79091L1.75554 6.24182C1.35392 6.65151 0.702828 6.65151 0.301212 6.24182C-0.100404 5.83212 -0.100404 5.16788 0.301212 4.75818L4.6643 0.307271C5.06591 -0.102424 5.71706 -0.102424 6.11868 0.307271Z" fill="#374072"/>
</svg>
