<svg width="186" height="180" viewBox="0 0 186 180" fill="none" xmlns="http://www.w3.org/2000/svg">
<path d="M182.451 45.9417L90.4554 21.2021C88.4955 20.6751 86.4798 21.8379 85.9532 23.7994L52.1252 149.8C51.5986 151.762 52.7605 153.779 54.7204 154.306L146.716 179.046C148.676 179.573 150.692 178.41 151.218 176.448L185.046 50.4476C185.573 48.4861 184.411 46.4687 182.451 45.9417Z" fill="#374072"/>
<path opacity="0.2" d="M171.942 52.0031L96.513 31.7187C94.5532 31.1917 92.5375 32.3545 92.0108 34.316L71.7433 109.807C71.2167 111.769 72.3786 113.786 74.3384 114.313L149.767 134.598C151.727 135.125 153.743 133.962 154.269 132L174.537 56.509C175.064 54.5475 173.902 52.5301 171.942 52.0031Z" fill="white"/>
<path opacity="0.2" d="M126.772 30.8921L89.9749 21.0729C89.1612 20.8543 88.294 20.968 87.564 21.389C86.834 21.81 86.3008 22.5038 86.0817 23.3181L51.9948 150.28C51.8864 150.683 51.8585 151.104 51.9125 151.518C51.9666 151.932 52.1017 152.331 52.31 152.693C52.5183 153.055 52.7958 153.372 53.1266 153.626C53.4575 153.881 53.8352 154.068 54.2381 154.176L126.772 173.583V30.8921Z" fill="black"/>
<path d="M115.013 0H3.67454C1.64515 0 0 1.64651 0 3.67759V155.746C0 157.777 1.64515 159.424 3.67454 159.424H115.013C117.043 159.424 118.688 157.777 118.688 155.746V3.67759C118.688 1.64651 117.043 0 115.013 0Z" fill="#374072"/>
<path d="M25.5217 108.276C27.4747 105.334 32.1083 98.8188 35.5495 97.6677C40.0196 96.1727 43.6335 92.0134 43.7419 89.6707C43.8503 87.3281 42.0351 85.3018 39.4794 84.4522C37.2232 83.7002 38.5314 79.9601 38.8694 79.0903C38.9084 78.9943 38.9301 78.8923 38.9337 78.7887C38.9337 78.2702 39.4978 76.2733 47.5689 76.4535C56.8325 76.6594 57.6831 75.9129 61.3044 76.9757C61.3044 76.9757 69.1826 78.8917 72.2508 80.7618C72.2263 80.5326 72.2922 80.303 72.4346 80.1219C72.6528 79.8391 72.7963 79.5058 72.8516 79.1528C73.1695 77.4464 70.8306 76.3836 69.4416 73.721C68.6865 72.2702 68.7527 71.1044 68.9695 70.3431C69.0059 70.2204 69.0163 70.0913 69 69.9643C68.9837 69.8372 68.9411 69.715 68.8748 69.6054C68.8086 69.4958 68.7202 69.4013 68.6153 69.3279C68.5104 69.2545 68.3914 69.2039 68.2658 69.1792C65.3996 68.6128 62.6529 67.048 61.2125 66.125C61.0987 66.0528 60.9705 66.0062 60.837 65.9884C60.7034 65.9707 60.5676 65.9821 60.4388 66.0219C60.3101 66.0618 60.1915 66.1291 60.0913 66.2193C59.9911 66.3095 59.9117 66.4203 59.8584 66.5442C59.5013 67.304 58.993 67.9829 58.3647 68.5393C58.225 68.6639 58.0507 68.7428 57.865 68.7655C57.2513 68.8427 55.765 68.9291 54.5303 68.1899C52.9338 67.2319 53.5713 67.0186 55.1679 66.4854C56.7645 65.9521 56.3382 65.4189 54.3135 62.8629C52.2889 60.307 50.3726 60.9469 49.4154 62.6533C48.4582 64.3597 50.9091 65.6358 50.9091 66.1672C50.9091 66.6987 50.165 67.8736 48.8881 68.1899C48.1532 68.3738 46.8983 67.5188 45.9834 66.7685C45.8816 66.6842 45.7628 66.6228 45.6351 66.5886C45.5075 66.5545 45.3739 66.5482 45.2436 66.5704C45.1134 66.5926 44.9894 66.6426 44.8802 66.7171C44.771 66.7916 44.6791 66.8888 44.6109 67.0021C44.5045 67.1821 44.3503 67.329 44.1654 67.4264C43.9805 67.5238 43.7721 67.5678 43.5637 67.5537C42.0736 67.5537 41.1128 63.718 42.4962 62.6515C43.4102 61.9236 44.2558 61.1136 45.0225 60.2316C45.0408 60.2095 45.0574 60.1856 45.0739 60.1617C46.7899 57.6444 51.4345 57.33 53.2498 57.3079C53.4529 57.3059 53.6496 57.2366 53.8091 57.1109C53.9687 56.9851 54.0821 56.81 54.1317 56.6129C55.1017 52.7348 59.6031 46.9353 59.2007 46.334C58.8332 45.7823 56.9592 46.8691 56.3676 47.0309C56.2592 47.0642 56.1573 47.1158 56.0663 47.1835C55.2175 47.7811 54.0563 47.1706 53.5695 47.0842C53.4007 47.0588 53.2412 46.9904 53.1065 46.8856C52.0721 46.0306 51.949 45.3245 52.0923 44.7471C52.1894 44.3898 52.3919 44.0702 52.6735 43.83C52.9551 43.5898 53.3026 43.4403 53.6705 43.4011C54.6387 43.2816 55.6474 42.7152 55.8238 42.6656L55.8642 42.6509C56.8343 42.2831 58.8516 40.5124 59.5387 39.8927C59.6941 39.754 59.7977 39.5666 59.8327 39.3613C59.861 39.1812 59.9422 39.0135 60.066 38.8797C60.1897 38.7459 60.3504 38.6519 60.5277 38.6097C60.7049 38.5675 60.8907 38.5791 61.0614 38.6428C61.2321 38.7066 61.38 38.8197 61.4863 38.9678L61.7269 39.2932C61.8132 39.4067 61.9243 39.4988 62.0517 39.5626C62.1791 39.6264 62.3194 39.66 62.4618 39.661C66.7611 39.7364 68.5579 43.6585 69.2046 45.729C69.2507 45.8805 69.335 46.0176 69.4495 46.1269C69.564 46.2362 69.7048 46.314 69.8582 46.3528C70.0116 46.3917 70.1724 46.3902 70.3251 46.3486C70.4777 46.3069 70.6171 46.2265 70.7296 46.1152C71.3781 45.49 72.1057 44.6588 72.5668 44.1146C72.6899 43.9728 72.7666 43.7967 72.7866 43.6099C72.8066 43.4232 72.7691 43.2348 72.6789 43.0701C72.012 41.9025 72.3666 40.4811 72.4713 40.128C72.4861 40.0775 72.5052 40.0283 72.5283 39.9809C73.3624 38.2709 74.3802 38.0355 74.7771 38.0134C74.8668 38.0087 74.9566 38.018 75.0435 38.041C78.4498 38.9126 77.8233 41.167 77.6469 41.6543C77.622 41.7238 77.6053 41.796 77.5973 41.8694C77.4981 42.7722 77.2721 43.3092 77.0461 43.6273C76.9364 43.7893 76.8797 43.9815 76.884 44.1772C76.8883 44.3729 76.9533 44.5625 77.07 44.7195C78.5655 46.8084 78.0952 51.4973 78.0474 51.9405V52.0122C77.8472 58.4774 79.4382 59.3251 79.4382 59.3251C84.2519 61.7302 85.0309 64.0839 85.0732 65.2607C85.0818 65.4722 85.1631 65.6743 85.3034 65.8327C85.4436 65.9912 85.6342 66.0963 85.843 66.1305C92.9128 67.2503 92.244 75.9735 92.6556 79.5629C93.0837 83.292 97.2377 84.7795 97.3461 85.7394C97.4545 86.6992 97.2396 87.3373 96.6112 88.4038C95.9829 89.4703 92.5692 89.4721 91.1821 89.5806C89.7949 89.6891 87.7739 88.1979 87.5608 87.7713C87.3477 87.3447 88.0918 87.4513 88.9443 86.0649C89.7968 84.6784 88.6209 82.3358 88.6209 82.3358C87.7684 80.7379 87.0188 75.7308 87.0188 75.7308C86.8559 74.1578 86.2542 72.6623 85.2826 71.4152C85.2026 71.3136 85.1023 71.2297 84.9881 71.169C84.874 71.1083 84.7485 71.0721 84.6196 71.0626C84.4906 71.053 84.3611 71.0705 84.2393 71.1138C84.1175 71.1571 84.006 71.2253 83.912 71.314C83.0319 72.1305 81.4115 72.7851 81.0312 72.9322C80.9745 72.9532 80.9203 72.9803 80.8695 73.0131C79.4235 73.9729 81.6834 75.3097 81.6834 75.3097C83.9359 76.7569 83.4545 77.7811 83.0834 78.1948C82.9698 78.3171 82.8259 78.4072 82.6663 78.4559C80.491 79.1602 78.8356 81.8062 78.0474 83.3085C77.9571 83.482 77.8143 83.6226 77.6395 83.7101C77.4646 83.7976 77.2666 83.8276 77.0737 83.7958C78.9753 85.0829 80.8621 86.6753 82.1905 88.8543C82.2497 88.953 82.327 89.0397 82.4183 89.1099C83.2745 89.759 88.0312 93.1957 96.8464 96.5478L96.896 96.5699C97.2634 96.7391 101.419 98.6992 103.867 101.627L103.927 101.707C104.161 102.057 105.923 104.572 108.695 104.968L108.879 105.003V13.7101C108.879 12.7347 108.492 11.7993 107.802 11.1096C107.113 10.4199 106.179 10.0325 105.204 10.0325H13.7043C12.7298 10.0325 11.7951 10.4199 11.106 11.1096C10.4169 11.7993 10.0298 12.7347 10.0298 13.7101V105.282C10.0298 106.257 10.4169 107.193 11.106 107.883C11.7951 108.572 12.7298 108.96 13.7043 108.96H25.3839C25.3602 108.842 25.3603 108.721 25.3839 108.604C25.4076 108.486 25.4544 108.375 25.5217 108.276Z" fill="#E72F50"/>
<path opacity="0.2" d="M5.34101e-09 3.67759V155.93C-3.54818e-05 156.589 0.176769 157.236 0.51193 157.803C0.847091 158.37 1.3283 158.836 1.90525 159.153C5.99134 127.201 13.7795 29.8952 13.7795 24.0882C13.7795 17.4686 19.8425 15.8136 19.8425 15.8136L72.3885 0.18388L3.67454 0C2.69999 0 1.76536 0.38746 1.07625 1.07714C0.387138 1.76682 5.34101e-09 2.70223 5.34101e-09 3.67759H5.34101e-09Z" fill="black"/>
</svg>
