<svg width="180" height="180" viewBox="0 0 180 180" fill="none" xmlns="http://www.w3.org/2000/svg">
<mask id="mask0" mask-type="alpha" maskUnits="userSpaceOnUse" x="0" y="0" width="180" height="180">
<path d="M180 90C180 139.706 139.706 180 90 180C40.2944 180 0 139.706 0 90C0 40.2944 40.2944 0 90 0C139.706 0 180 40.2944 180 90Z" fill="#C4C4C4"/>
</mask>
<g mask="url(#mask0)">
<path d="M29.9432 277.816L29.1917 197.402H4.6416C6.38015 174.019 14.3815 155.259 17.9462 147.904C19.022 145.687 20.7295 143.838 22.8537 142.59C29.3545 138.768 45.7254 129.922 71.1548 121.342H113.491C138.918 129.922 155.289 138.768 161.79 142.59C163.914 143.838 165.621 145.687 166.697 147.904C170.259 155.269 178.258 174.029 179.999 197.402H155.449L154.698 277.816H29.9432Z" fill="#374072"/>
<g opacity="0.1">
<g opacity="0.1">
<path opacity="0.1" d="M47.0011 179.115C47.0011 179.115 55.769 200.909 54.767 211.932C53.7649 222.954 45.498 222.954 45.498 222.954L47.0011 179.115Z" fill="black"/>
<path opacity="0.1" d="M138.437 193.645V174.355C138.437 174.355 133.427 197.152 134.179 201.661C134.93 206.17 138.187 209.928 138.187 209.928L138.437 193.645Z" fill="black"/>
<path opacity="0.1" d="M20.9485 140.537C20.9485 140.537 10.6775 178.114 13.6837 203.666C16.6898 229.218 -0.595459 207.173 -0.595459 207.173V172.101L20.9485 140.537Z" fill="black"/>
<path opacity="0.1" d="M18.1926 152.06C18.1926 152.06 20.1967 145.958 27.9625 141.539C40.5783 134.354 62.7585 124.386 70.0484 121.749C81.8224 117.49 34.2253 128.763 34.2253 128.763C34.2253 128.763 13.4329 141.038 13.6834 142.541C13.9339 144.044 18.1926 152.06 18.1926 152.06Z" fill="black"/>
<g opacity="0.1">
<path opacity="0.1" d="M70.8599 118.877C70.8599 118.877 69.0737 121.535 69.0737 126.849C69.0737 132.49 78.5931 138.154 84.3273 141.058C86.8099 142.31 88.586 143.062 88.586 143.062L91.6623 130.844C91.6623 130.844 69.6725 125.521 70.8599 118.877Z" fill="black"/>
</g>
<path opacity="0.1" d="M84.3277 136.538L75.8103 210.439H89.8389L93.3461 141.042L84.3277 136.538Z" fill="black"/>
<path opacity="0.1" d="M70.0477 121.748C70.0477 121.748 33.4731 138.031 23.7032 149.304C13.9333 160.577 16.1879 199.656 16.1879 199.656H-12.1199L2.15925 137.78L25.9578 118.491L54.015 114.232L70.0477 121.748Z" fill="black"/>
</g>
</g>
<path d="M91.8178 266.553L107.793 237.779L95.3275 140.548H88.3131L75.8452 237.781L91.8178 266.553Z" fill="#171D33"/>
<path opacity="0.2" d="M89.974 144.294C90.1319 143.317 95.3024 141.303 95.5755 141.288L88.3106 140.536L75.8452 237.782L91.8178 266.543C76.2861 228.716 89.8137 145.296 89.974 144.294Z" fill="black"/>
<path d="M91.8181 128.01L84.3027 137.78L85.3273 138.975C86.1357 139.918 87.1368 140.677 88.2631 141.2C89.3894 141.724 90.6148 142 91.8568 142.009C93.0987 142.019 94.3284 141.763 95.4629 141.258C96.5975 140.753 97.6106 140.01 98.4341 139.08L99.5839 137.78L91.8181 128.01Z" fill="#171D33"/>
<path opacity="0.2" d="M84.3027 137.781L85.3273 138.976C86.537 140.388 88.1676 141.375 89.9797 141.793C91.7919 142.21 93.69 142.035 95.3954 141.293C88.7944 141.459 87.5594 137.285 87.5594 137.285L91.8181 128.016L84.3027 137.781Z" fill="black"/>
<path d="M112.013 127.902H74.4919H71.6235V103.984H112.013V127.902Z" fill="#DDAD99"/>
<path opacity="0.1" d="M71.6384 103.984V127.903H74.6947L74.3139 123.424C73.7677 116.948 73.8953 110.433 74.6947 103.984H71.6384Z" fill="black"/>
<path d="M58.708 46.655H124.933V81.1504C124.933 89.9324 121.444 98.3547 115.235 104.564C109.025 110.774 100.603 114.263 91.8205 114.263C83.0386 114.263 74.6162 110.774 68.4064 104.564C62.1966 98.3547 58.708 89.9324 58.708 81.1504V46.655Z" fill="#DDAD99"/>
<path opacity="0.1" d="M91.291 114.258C52.3866 106.73 63.2538 67.2146 63.2538 67.2146C82.6258 74.1338 118.617 63.6549 118.617 63.6549L89.5575 54.1655L58.707 57.1165V81.1405C58.7046 89.8326 62.12 98.177 68.2161 104.373C74.3122 110.569 82.6001 114.119 91.291 114.258Z" fill="black"/>
<path d="M126.268 53.1712C103.564 45.9064 77.9718 45.706 55.0701 52.615L53.2263 53.1712V45.8788L55.0701 45.3227C77.9718 38.4136 103.564 38.614 126.268 45.8788V53.1712Z" fill="#2A3659"/>
<path opacity="0.1" d="M53.1663 45.4834V52.5153L55.6513 52.0318C58.0479 51.3253 60.4695 50.6949 62.9161 50.1404L61.9918 43.294L61.5584 43.1587C59.3522 43.6848 57.1661 44.2743 55 44.9273L53.1663 45.4834Z" fill="#171D33"/>
<path d="M128.954 55.9091C128.954 60.982 111.401 67.1345 89.749 67.1345C68.0973 67.1345 50.5415 60.982 50.5415 55.9091C50.5415 50.8363 68.6184 45.6382 90.27 45.6382C111.922 45.6382 128.954 50.8363 128.954 55.9091Z" fill="#374072"/>
<path opacity="0.1" d="M89.4083 67.1369C71.9477 63.4619 64.9559 61.1246 59.6902 57.5323C54.7476 54.1704 62.7414 48.7644 62.7414 48.7644C55.2511 50.7084 50.5415 53.3262 50.5415 55.914C50.5415 60.9543 67.9119 67.0692 89.4083 67.1369Z" fill="black"/>
<path d="M89.7485 40.8183C111.23 40.8183 126.268 46.1892 126.268 46.1892C126.268 46.1892 138.085 40.8183 138.085 31.1586C138.085 21.4988 109.083 0 89.7485 0C70.4141 0 41.3999 21.4838 41.3999 31.151C41.3999 40.8183 53.2165 46.1817 53.2165 46.1817C53.2165 46.1817 68.2647 40.8183 89.7485 40.8183Z" fill="#374072"/>
<path opacity="0.1" d="M87.6022 0.0878906C68.3429 1.55338 41.4155 21.8347 41.4155 31.1512C41.4155 40.8185 53.2321 46.1819 53.2321 46.1819C53.2321 46.1819 56.4888 45.017 62.1403 43.7745C54.5548 34.9841 51.6038 33.5887 56.128 24.1119C60.4819 15.0309 71.1562 5.73441 87.6022 0.0878906Z" fill="black"/>
<path d="M100.509 17.4342V24.416C100.509 30.9418 90.3057 36.2301 90.3057 36.2301C90.3057 36.2301 80.0999 30.9418 80.0999 24.416V17.4342C83.2119 17.4341 86.2139 16.282 88.527 14.2001L90.3057 12.5994L92.0818 14.2001C94.3952 16.2816 97.397 17.4336 100.509 17.4342Z" fill="#E72F50"/>
<path opacity="0.2" d="M82.4238 19.1759C87.9601 18.5822 89.5033 13.2814 89.7112 12.3845L87.9702 13.9527C85.657 16.0346 82.6551 17.1867 79.543 17.1868V24.1686C79.543 28.535 84.4004 33.212 89.7388 35.9776C77.6792 27.4778 82.4238 19.1759 82.4238 19.1759Z" fill="black"/>
<path d="M87.1877 87.9717H96.4566C99.2869 87.9717 102.001 89.096 104.003 91.0974C106.004 93.0987 107.128 95.8131 107.128 98.6434H76.5134C76.5134 97.2418 76.7895 95.8539 77.326 94.559C77.8625 93.264 78.6488 92.0875 79.64 91.0965C80.6312 90.1055 81.808 89.3195 83.103 88.7833C84.3981 88.2471 85.786 87.9714 87.1877 87.9717Z" fill="#473B2B"/>
<path opacity="0.2" d="M79.4018 96.6694C81.1804 88.7608 85.9151 87.9717 91.1533 87.9717H86.599C83.9241 87.9717 81.3588 89.0343 79.4674 90.9257C77.576 92.8171 76.5134 95.3824 76.5134 98.0572V98.6434H92.0451C83.1845 98.6434 79.4018 96.6694 79.4018 96.6694Z" fill="black"/>
<path d="M112.027 115.871C112.027 115.871 113.813 118.529 113.813 123.842C113.813 131.924 100.002 137.791 100.002 137.791L92.4141 127.828C92.4141 127.828 113.221 122.514 112.027 115.871Z" fill="#425189"/>
<path d="M71.6113 115.871C71.6113 115.871 69.8252 118.529 69.8252 123.843C69.8252 131.924 84.8258 137.791 84.8258 137.791L92.4138 127.828C92.4138 127.828 70.4239 122.515 71.6113 115.871Z" fill="#425189"/>
</g>
</svg>
