<svg width="9" height="6" viewBox="0 0 9 6" fill="none" xmlns="http://www.w3.org/2000/svg">
<path d="M0.0544596 3.1329L2.86711 5.94555C2.92095 5.99902 3.00097 6.01532 3.07146 5.98621C3.1416 5.95727 3.18719 5.88878 3.18719 5.81298V5.43797C3.18719 5.38817 3.16741 5.34055 3.13225 5.30539L1.20221 3.37535H8.81248C8.91613 3.37533 9 3.29148 9 3.18783V2.81282C9 2.70917 8.91613 2.6253 8.81248 2.6253H1.20221L3.13225 0.695263C3.16741 0.660105 3.18719 0.612502 3.18719 0.562682V0.187668C3.18719 0.11185 3.14159 0.0433793 3.07146 0.0144444C3.04821 0.00474072 3.02386 0.000152588 2.99969 0.000152588C2.95098 0.000152588 2.903 0.0191908 2.86711 0.0550871L0.0544596 2.86774C-0.0187922 2.94099 -0.0187922 3.05965 0.0544596 3.1329Z" fill="white"/>
</svg>
