<svg width="1920" height="880" viewBox="0 0 1920 880" fill="none" xmlns="http://www.w3.org/2000/svg">
<path d="M0 34.3337C47.5255 18.6162 218.075 -0.165367 414.812 50.4492C611.548 101.064 729.629 71.5385 764.077 50.4492C797.887 30.1556 883.114 -8.0439 953.541 1.50604C1021.9 10.7752 1049.61 55.7646 1069.02 87.2669L1069.02 87.269C1069.61 88.2225 1070.19 89.1636 1070.76 90.091C1090.27 121.659 1139.66 155.448 1231.52 111.862C1370.96 45.7022 1427.94 51.4641 1503.82 59.137L1503.82 59.137C1514.64 60.2311 1525.84 61.3639 1537.72 62.3327C1605.66 67.8723 1676.21 111.333 1708.5 148.5C1747.31 193.178 1837.32 224.507 1920 203.975V584.298V655.634V856.586C1913.57 847.335 1871.75 818.866 1755.95 779.001C1640.16 739.136 1516.86 762.39 1490 779.001C1435.44 812.741 1318 854.42 1211.5 870.713C1066.37 892.917 1016.47 872.579 953.125 838.517C941.137 830.291 929.133 821.576 916.965 812.741C866.948 776.428 814.161 738.104 748.343 723.493C646.055 700.785 584.459 737.652 542 772.976C499.541 808.299 439.089 819.37 414 801.709C393.928 787.579 396.63 754.19 400.49 739.262C406.174 712.969 395.43 679.469 355.851 655.634C334.234 640.974 276.4 612.833 218 617.553C159.6 622.273 123.5 635.253 87.5 650.807C46 668.738 15.0867 686.664 0 699.523V655.634V584.298V34.3337Z" fill="white"/>
</svg>
