<svg width="104" height="80" viewBox="0 0 104 80" fill="none" xmlns="http://www.w3.org/2000/svg">
<path opacity="0.05" d="M104 28.4321C104 38.6527 101.477 48.223 96.4313 57.1429C91.1986 66.2486 84.097 73.8676 75.1267 80L59.7089 67.7352C64.381 65.3194 68.8661 61.5099 73.1644 56.3066C77.4627 51.1034 80.2659 46.0859 81.5741 41.2544C80.8266 41.8118 78.9578 42.0906 75.9677 42.0906C70.5481 42.0906 66.0629 40.2323 62.5121 36.5157C58.7745 32.7991 56.9057 27.9675 56.9057 22.0209C56.9057 16.0743 59.1482 10.8711 63.6334 6.41116C67.9317 2.13705 73.071 0 79.0512 0C85.9659 0 91.8527 2.50871 96.7116 7.52614C101.571 12.7294 104 19.698 104 28.4321ZM46.814 28.4321C46.814 38.6527 44.2911 48.223 39.2453 57.1429C34.0126 66.2486 27.0045 73.8676 18.221 80L2.52291 67.7352C7.19497 65.3194 11.7736 61.5099 16.2588 56.3066C20.5571 51.1034 23.2669 46.0859 24.3881 41.2544C23.6406 41.8118 21.7718 42.0906 18.7817 42.0906C13.549 42.0906 9.15723 40.2323 5.60647 36.5157C1.86883 32.7991 7.62939e-06 27.9675 7.62939e-06 22.0209C7.62939e-06 16.0743 2.14915 10.8711 6.44744 6.41116C10.7457 2.13705 15.9784 0 22.1456 0C29.0602 0 34.947 2.50871 39.8059 7.52614C44.478 12.7294 46.814 19.698 46.814 28.4321Z" fill="#374072"/>
</svg>
