<svg width="104" height="80" viewBox="0 0 104 80" fill="none" xmlns="http://www.w3.org/2000/svg">
<path opacity="0.05" d="M0 51.5679C0 41.3473 2.52291 31.777 7.56873 22.8571C12.8014 13.7514 19.903 6.1324 28.8733 0L44.2911 12.2648C39.619 14.6806 35.1339 18.4901 30.8356 23.6934C26.5373 28.8966 23.7341 33.9141 22.4259 38.7456C23.1734 38.1882 25.0422 37.9094 28.0323 37.9094C33.4519 37.9094 37.9371 39.7677 41.4879 43.4843C45.2255 47.2009 47.0943 52.0325 47.0943 57.9791C47.0943 63.9257 44.8518 69.1289 40.3666 73.5888C36.0683 77.8629 30.929 80 24.9488 80C18.0341 80 12.1473 77.4913 7.28841 72.4739C2.42947 67.2706 0 60.302 0 51.5679ZM57.186 51.5679C57.186 41.3473 59.7089 31.777 64.7547 22.8571C69.9874 13.7514 76.9955 6.1324 85.779 0L101.477 12.2648C96.805 14.6806 92.2264 18.4901 87.7412 23.6934C83.4429 28.8966 80.7331 33.9141 79.6119 38.7456C80.3594 38.1882 82.2282 37.9094 85.2183 37.9094C90.451 37.9094 94.8428 39.7677 98.3935 43.4843C102.131 47.2009 104 52.0325 104 57.9791C104 63.9257 101.851 69.1289 97.5526 73.5888C93.2543 77.8629 88.0216 80 81.8544 80C74.9398 80 69.053 77.4913 64.1941 72.4739C59.522 67.2706 57.186 60.302 57.186 51.5679Z" fill="#374072"/>
</svg>
