<svg width="1920" height="1500" viewBox="0 0 1920 1500" fill="none" xmlns="http://www.w3.org/2000/svg">
<path fill-rule="evenodd" clip-rule="evenodd" d="M270.8 118.053C335.549 85.9409 498.731 42.9011 669.823 63.076C821.143 80.9194 931.221 50.6292 985.425 35.7138C992.507 33.7649 998.636 32.0785 1003.78 30.7963C1062.15 10.1165 1230.56 -26.7021 1398.49 30.7963C1424.23 39.6085 1445.62 47.4924 1464.54 54.464C1539.39 82.0546 1575.48 95.356 1688.91 95.356C1745.53 90.6486 1871.01 88.5975 1920 118.053V937.787V938.28V1328.48C1848.42 1318.8 1709.64 1360.09 1649.2 1381.95C1584.45 1414.06 1421.27 1457.1 1250.18 1436.92C1098.86 1419.08 988.779 1449.37 934.575 1464.29C927.493 1466.24 921.364 1467.92 916.222 1469.2C857.852 1489.88 689.439 1526.7 521.505 1469.2C495.768 1460.39 474.378 1452.51 455.464 1445.54C380.611 1417.95 344.524 1404.64 231.089 1404.64C174.473 1409.35 48.9927 1411.4 0 1381.95V938.28V937.787V171.516C71.5754 181.2 210.356 139.909 270.8 118.053Z" fill="white"/>
</svg>
