<svg width="18" height="18" viewBox="0 0 18 18" fill="none" xmlns="http://www.w3.org/2000/svg">
<path fill-rule="evenodd" clip-rule="evenodd" d="M9 16.2C12.9764 16.2 16.2 12.9764 16.2 9C16.2 5.02355 12.9764 1.8 9 1.8C5.02355 1.8 1.8 5.02355 1.8 9C1.8 12.9764 5.02355 16.2 9 16.2ZM9 18C13.9706 18 18 13.9706 18 9C18 4.02944 13.9706 0 9 0C4.02944 0 0 4.02944 0 9C0 13.9706 4.02944 18 9 18Z" fill="#73757F"/>
<path fill-rule="evenodd" clip-rule="evenodd" d="M9 9.9C8.50294 9.9 8.1 9.49706 8.1 9V4.5C8.1 4.00294 8.50294 3.6 9 3.6C9.49706 3.6 9.9 4.00294 9.9 4.5V9C9.9 9.49706 9.49706 9.9 9 9.9Z" fill="#73757F"/>
<path fill-rule="evenodd" clip-rule="evenodd" d="M14.4 9C14.4 9.49706 13.9971 9.9 13.5 9.9H9C8.50294 9.9 8.1 9.49706 8.1 9C8.1 8.50294 8.50294 8.1 9 8.1H13.5C13.9971 8.1 14.4 8.50294 14.4 9Z" fill="#73757F"/>
</svg>
