<svg width="60" height="60" viewBox="0 0 60 60" fill="none" xmlns="http://www.w3.org/2000/svg">
<circle cx="30" cy="30" r="29" stroke="#374072" stroke-width="2"/>
<g clip-path="url(#clip0)">
<path d="M44.7326 36.7089C44.652 36.5739 44.1532 35.4901 41.753 33.2624C39.2403 30.9298 39.5779 31.3085 42.6043 27.2751C44.4476 24.8187 45.1845 23.3186 44.9539 22.6773C44.7345 22.066 43.3788 22.2272 43.3788 22.2272L38.8709 22.2535C38.8709 22.2535 38.5372 22.2085 38.2878 22.3566C38.0459 22.5029 37.8902 22.8404 37.8902 22.8404C37.8902 22.8404 37.1758 24.7418 36.2232 26.3582C34.215 29.7691 33.4105 29.9491 33.0824 29.7372C32.3192 29.244 32.5105 27.7533 32.5105 26.6957C32.5105 23.3898 33.0111 22.0116 31.5335 21.6553C31.0422 21.5372 30.6822 21.4584 29.4277 21.4453C27.8189 21.4284 26.4556 21.4509 25.685 21.8278C25.1712 22.0791 24.7755 22.6398 25.0174 22.6717C25.3156 22.711 25.9906 22.8535 26.3488 23.3411C26.8119 23.9693 26.795 25.3831 26.795 25.3831C26.795 25.3831 27.0613 29.274 26.1744 29.7578C25.565 30.0897 24.7305 29.4128 22.9398 26.3169C22.0228 24.7324 21.329 22.9792 21.329 22.9792C21.329 22.9792 21.1959 22.6529 20.9577 22.4785C20.669 22.2666 20.2639 22.1991 20.2639 22.1991L15.9774 22.2254C15.9774 22.2254 15.3342 22.2441 15.0979 22.5235C14.8879 22.7729 15.081 23.2867 15.081 23.2867C15.081 23.2867 18.4375 31.1379 22.2366 35.0963C25.7225 38.7247 29.679 38.4866 29.679 38.4866H31.4716C31.4716 38.4866 32.0136 38.4266 32.2892 38.1284C32.5442 37.8547 32.5349 37.3409 32.5349 37.3409C32.5349 37.3409 32.4992 34.9351 33.6168 34.5807C34.7175 34.2319 36.1314 36.9058 37.6296 37.9353C38.7622 38.7135 39.6229 38.5428 39.6229 38.5428L43.6301 38.4866C43.6301 38.4866 45.7265 38.3572 44.7326 36.7089Z" fill="#374072"/>
</g>
<defs>
<clipPath id="clip0">
<rect width="30" height="30" fill="white" transform="translate(15 15)"/>
</clipPath>
</defs>
</svg>
