<svg width="18" height="12" viewBox="0 0 18 12" fill="none" xmlns="http://www.w3.org/2000/svg">
<path d="M17.8393 10.0253C17.7909 9.94431 17.4917 9.29401 16.0516 7.95741C14.5439 6.55781 14.7465 6.78508 16.5623 4.36502C17.6683 2.89116 18.1105 1.9911 17.9721 1.60632C17.8404 1.23954 17.027 1.3363 17.027 1.3363L14.3223 1.35205C14.3223 1.35205 14.122 1.32505 13.9724 1.41393C13.8273 1.50168 13.7339 1.7042 13.7339 1.7042C13.7339 1.7042 13.3052 2.84503 12.7337 3.81486C11.5287 5.86138 11.0461 5.96939 10.8492 5.84226C10.3913 5.54636 10.506 4.65192 10.506 4.01737C10.506 2.03385 10.8064 1.20691 9.91986 0.993147C9.62508 0.922266 9.40907 0.875013 8.65639 0.867137C7.69107 0.857012 6.87313 0.870513 6.41072 1.09665C6.10245 1.24742 5.86506 1.58382 6.0102 1.60294C6.18908 1.62657 6.59411 1.71208 6.809 2.0046C7.0869 2.3815 7.07677 3.22981 7.07677 3.22981C7.07677 3.22981 7.23653 5.56436 6.70437 5.85463C6.33872 6.05377 5.83806 5.64762 4.7636 3.7901C4.21344 2.83941 3.79716 1.78746 3.79716 1.78746C3.79716 1.78746 3.71728 1.59169 3.57439 1.48706C3.40113 1.35992 3.15811 1.31942 3.15811 1.31942L0.586175 1.33517C0.586175 1.33517 0.200272 1.34642 0.0585113 1.51406C-0.0674979 1.6637 0.0483856 1.97197 0.0483856 1.97197C0.0483856 1.97197 2.06228 6.68269 4.3417 9.05774C6.43323 11.2348 8.80715 11.0919 8.80715 11.0919H9.88273C9.88273 11.0919 10.2079 11.0559 10.3733 10.877C10.5263 10.7127 10.5206 10.4045 10.5206 10.4045C10.5206 10.4045 10.4993 8.96099 11.1698 8.74835C11.8302 8.53908 12.6786 10.1435 13.5775 10.7611C14.257 11.228 14.7735 11.1256 14.7735 11.1256L17.1778 11.0919C17.1778 11.0919 18.4356 11.0143 17.8393 10.0253Z" fill="#4974A2"/>
</svg>
