<svg width="60" height="60" viewBox="0 0 60 60" fill="none" xmlns="http://www.w3.org/2000/svg">
<circle cx="30" cy="30" r="30" fill="#4F5C9F"/>
<g clip-path="url(#clip0)">
<path d="M44.7326 36.7092C44.652 36.5742 44.1532 35.4904 41.753 33.2627C39.2403 30.93 39.5779 31.3088 42.6043 27.2754C44.4476 24.8189 45.1845 23.3188 44.9539 22.6775C44.7345 22.0662 43.3788 22.2275 43.3788 22.2275L38.8709 22.2537C38.8709 22.2537 38.5372 22.2087 38.2878 22.3569C38.0459 22.5031 37.8902 22.8407 37.8902 22.8407C37.8902 22.8407 37.1758 24.7421 36.2232 26.3584C34.215 29.7693 33.4105 29.9493 33.0824 29.7374C32.3192 29.2443 32.5105 27.7535 32.5105 26.6959C32.5105 23.3901 33.0111 22.0119 31.5335 21.6556C31.0422 21.5374 30.6822 21.4587 29.4277 21.4456C27.8189 21.4287 26.4556 21.4512 25.685 21.8281C25.1712 22.0794 24.7755 22.64 25.0174 22.6719C25.3156 22.7113 25.9906 22.8538 26.3488 23.3413C26.8119 23.9695 26.795 25.3834 26.795 25.3834C26.795 25.3834 27.0613 29.2743 26.1744 29.7581C25.565 30.09 24.7305 29.413 22.9398 26.3172C22.0228 24.7327 21.329 22.9794 21.329 22.9794C21.329 22.9794 21.1959 22.6531 20.9577 22.4788C20.669 22.2669 20.2639 22.1994 20.2639 22.1994L15.9774 22.2256C15.9774 22.2256 15.3342 22.2444 15.0979 22.5238C14.8879 22.7732 15.081 23.2869 15.081 23.2869C15.081 23.2869 18.4375 31.1382 22.2366 35.0966C25.7225 38.725 29.679 38.4868 29.679 38.4868H31.4716C31.4716 38.4868 32.0136 38.4268 32.2892 38.1287C32.5442 37.8549 32.5349 37.3411 32.5349 37.3411C32.5349 37.3411 32.4992 34.9353 33.6168 34.5809C34.7175 34.2321 36.1314 36.9061 37.6296 37.9355C38.7622 38.7137 39.6229 38.5431 39.6229 38.5431L43.6301 38.4868C43.6301 38.4868 45.7265 38.3574 44.7326 36.7092Z" fill="white"/>
</g>
<defs>
<clipPath id="clip0">
<rect width="30" height="30" fill="white" transform="translate(15 15)"/>
</clipPath>
</defs>
</svg>
