<svg width="60" height="60" viewBox="0 0 60 60" fill="none" xmlns="http://www.w3.org/2000/svg">
<circle cx="30" cy="30" r="30" fill="#4F5C9F"/>
<path d="M30.0035 16H29.9965C22.2773 16 16 22.279 16 30C16 33.0625 16.987 35.901 18.6653 38.2057L16.9205 43.4067L22.3018 41.6865C24.5155 43.153 27.1562 44 30.0035 44C37.7227 44 44 37.7192 44 30C44 22.2808 37.7227 16 30.0035 16ZM38.1497 35.7698C37.812 36.7235 36.4715 37.5145 35.4023 37.7455C34.6707 37.9012 33.7153 38.0255 30.4987 36.692C26.3845 34.9875 23.735 30.8067 23.5285 30.5355C23.3307 30.2642 21.866 28.3218 21.866 26.3127C21.866 24.3038 22.8863 23.3255 23.2975 22.9055C23.6353 22.5608 24.1935 22.4032 24.729 22.4032C24.9023 22.4032 25.058 22.412 25.198 22.419C25.6093 22.4365 25.8158 22.461 26.087 23.1103C26.4248 23.924 27.2472 25.933 27.3452 26.1395C27.445 26.346 27.5448 26.626 27.4048 26.8973C27.2735 27.1773 27.158 27.3015 26.9515 27.5395C26.745 27.7775 26.549 27.9595 26.3425 28.215C26.1535 28.4373 25.94 28.6753 26.178 29.0865C26.416 29.489 27.2385 30.8312 28.4495 31.9092C30.0122 33.3005 31.2792 33.745 31.7325 33.934C32.0702 34.074 32.4727 34.0408 32.7195 33.7783C33.0327 33.4405 33.4195 32.8805 33.8132 32.3293C34.0933 31.9338 34.4468 31.8847 34.8178 32.0247C35.1958 32.156 37.196 33.1447 37.6073 33.3495C38.0185 33.556 38.2897 33.654 38.3895 33.8273C38.4875 34.0005 38.4875 34.8142 38.1497 35.7698Z" fill="white"/>
</svg>
